<?xml version="1.0" encoding="UTF-8"?>
<svg width="25px" height="19px" viewBox="0 0 25 19" version="1.1" xmlns="http://www.w3.org/2000/svg" xmlns:xlink="http://www.w3.org/1999/xlink">
    <!-- Generator: Sketch 47.1 (45422) - http://www.bohemiancoding.com/sketch -->
    <title>Fill 1</title>
    <desc>Created with Sketch.</desc>
    <defs></defs>
    <g id="Symbols" stroke="none" stroke-width="1" fill="none" fill-rule="evenodd">
        <g id="Footer" transform="translate(-687.000000, -364.000000)" fill="#A7A7A8">
            <g id="social" transform="translate(645.000000, 362.000000)">
                <path d="M58.8783235,2 L59.7122618,2 C59.9441458,2.03941587 60.1777957,2.07143269 60.4076193,2.11957212 C61.3711614,2.32153846 62.2059828,2.74447115 62.9146341,3.38722837 C62.9788474,3.44546154 63.1065871,3.50191346 63.1812001,3.48209135 C63.7842356,3.32150481 64.3901164,3.16402404 64.9778957,2.96205769 C65.4233169,2.80900721 65.8433766,2.5920601 66.3015031,2.391875 C66.1199988,2.94429087 65.8513726,3.43239904 65.462512,3.84345673 C65.0797343,4.24798317 64.6407884,4.60637981 64.2385849,4.9740024 C65.1588113,4.87699279 66.0663324,4.62008173 67,4.25917308 C66.9292624,4.3578726 66.8949238,4.40815865 66.8581814,4.45684615 C66.2524479,5.2603726 65.5312874,5.96118029 64.685723,6.5474399 C64.5129506,6.66724038 64.452858,6.79288702 64.4462846,6.99964904 C64.4227381,7.74375481 64.4189118,8.49448317 64.3052999,9.2289976 C63.9201185,11.7179976 62.8965328,13.9690865 61.2203167,15.9435793 C58.833438,18.7551683 55.7159802,20.3902644 51.8994859,20.8650817 C51.4797696,20.9173317 51.057944,20.9553774 50.6370504,21 L49.2144497,21 C48.8985342,20.9704952 48.5826188,20.9406707 48.2666542,20.9115769 C46.2886015,20.7296154 44.4390734,20.1674712 42.7015874,19.2766635 C42.4637188,19.1547163 42.2336499,19.0195697 42,18.8904976 C43.3504405,18.9722524 44.6619312,18.8751514 45.9507584,18.5383125 C47.2406157,18.2012452 48.4144575,17.6545841 49.5025999,16.8647596 C47.0753488,16.6107716 45.1193709,15.2353726 44.7553323,13.5350553 C45.4990581,13.6426611 46.2314522,13.635125 47.0097129,13.4393245 C45.7817142,13.1677524 44.7997763,12.6126875 44.0462885,11.730512 C43.296627,10.8527668 42.9178227,9.85321154 42.9263583,8.68708654 C43.6527186,9.02986298 44.3707396,9.24580529 45.2245453,9.26649519 C44.0931853,8.5015625 43.3765869,7.5485024 43.0918215,6.34136298 C42.8079391,5.1380601 42.9915527,3.9921226 43.6611561,2.88322596 C44.9900124,4.38340385 46.5593862,5.56770673 48.3978278,6.43535817 C50.2396543,7.30465385 52.1910209,7.78782933 54.251192,7.88465625 C54.2184232,7.57681971 54.1785903,7.29816827 54.1606361,7.01832933 C54.0291192,4.97126202 55.4030571,3.01435337 57.4813786,2.3224976 C57.9308714,2.1728726 58.4118576,2.10536779 58.8783235,2" id="Fill-1"></path>
            </g>
        </g>
    </g>
</svg>