<?xml version="1.0" encoding="UTF-8"?>
<svg width="24px" height="24px" viewBox="0 0 24 24" version="1.1" xmlns="http://www.w3.org/2000/svg" xmlns:xlink="http://www.w3.org/1999/xlink">
    <!-- Generator: Sketch 47.1 (45422) - http://www.bohemiancoding.com/sketch -->
    <title>Combined Shape</title>
    <desc>Created with Sketch.</desc>
    <defs></defs>
    <g id="Symbols" stroke="none" stroke-width="1" fill="none" fill-rule="evenodd">
        <g id="Footer" transform="translate(-773.000000, -362.000000)" fill="#A7A7A8">
            <g id="social" transform="translate(645.000000, 362.000000)">
                <path d="M128,0 L152,0 L152,24 L128,24 L128,0 Z M137.874516,20.2451993 L141.517378,20.2451993 L141.517378,14.1245397 C141.517378,13.7416521 141.561136,13.4462805 141.648652,13.2384453 C141.801795,12.8664921 142.034266,12.5519785 142.34604,12.2949113 C142.65782,12.0378237 143.048894,11.9092901 143.519305,11.9092901 C144.744536,11.9092901 145.357148,12.7352181 145.357148,14.3870945 L145.357148,20.2451993 L149.000003,20.2451993 L149.000003,13.9604489 C149.000003,12.3413961 148.617122,11.1134453 147.851354,10.2765693 C147.085578,9.43970012 146.073691,9.02126212 144.815636,9.02126212 C143.404446,9.02126212 142.305022,9.62840692 141.517378,10.8426897 L141.517378,10.8755065 L141.50097,10.8755065 L141.517378,10.8426897 L141.517378,9.28381012 L137.874516,9.28381012 C137.896392,9.63386732 137.90734,10.7223433 137.90734,12.5492517 C137.90734,14.3761465 137.896392,16.9414533 137.874516,20.2451993 Z M132.213319,20.2451993 L135.856174,20.2451993 L135.856174,9.28381012 L132.213319,9.28381012 L132.213319,20.2451993 Z M132.000003,5.88709452 C132.000003,6.43405932 132.185969,6.88805452 132.557916,7.24905972 C132.929862,7.61006492 133.41666,7.79057092 134.018338,7.79057092 L134.034753,7.79057092 C134.6583,7.79057092 135.161527,7.61006492 135.544401,7.24905972 C135.916354,6.89898212 136.102314,6.46141572 136.102314,5.93631972 C136.102314,5.35651092 135.910873,4.88612772 135.527992,4.52512252 C135.156046,4.17504492 134.669248,4.00002652 134.06757,4.00002652 C133.454958,4.00002652 132.957205,4.17779212 132.574324,4.53333012 C132.191443,4.88884772 132.000003,5.34010252 132.000003,5.88709452 Z" id="Combined-Shape"></path>
            </g>
        </g>
    </g>
</svg>